<svg width="66" height="16" viewBox="0 0 66 16" fill="none" xmlns="http://www.w3.org/2000/svg">
<path d="M5.508 13.586C7.29 13.37 8.514 12.254 8.514 10.652C8.514 9.23 7.578 8.348 5.904 7.646L4.59 7.106C3.438 6.548 2.916 6.188 2.916 5.324C2.916 4.316 3.834 3.83 4.896 3.83C5.922 3.83 6.678 4.28 7.326 5.27L8.28 4.532C7.614 3.398 6.678 2.768 5.508 2.606V0.499999H4.122V2.642C2.592 2.876 1.512 3.902 1.512 5.342C1.512 6.782 2.484 7.592 4.014 8.24L5.292 8.78C6.516 9.338 7.11 9.806 7.11 10.67C7.11 11.732 6.192 12.38 4.896 12.38C3.582 12.38 2.538 11.714 1.728 10.382L0.72 11.102C1.494 12.452 2.628 13.352 4.122 13.568V15.692H5.508V13.586ZM13.1604 12.74L15.7884 9.968C16.8684 8.834 17.4804 8.114 17.9304 7.106C18.1644 6.602 18.2724 6.08 18.2724 5.522C18.2724 3.506 16.7064 1.922 14.5284 1.922C12.2064 1.922 10.6944 3.722 10.6944 5.612C10.6944 5.99 10.7304 6.332 10.8204 6.656H12.2604C12.1884 6.332 12.1524 6.008 12.1524 5.666C12.1524 5 12.3684 4.424 12.8004 3.938C13.2324 3.452 13.8084 3.218 14.5284 3.218C15.9144 3.218 16.8144 4.28 16.8144 5.594C16.8144 6.728 16.1664 7.628 14.7264 9.14L10.4964 13.64V14H18.7584V12.74H13.1604ZM23.2327 12.74L25.8607 9.968C26.9407 8.834 27.5527 8.114 28.0027 7.106C28.2367 6.602 28.3447 6.08 28.3447 5.522C28.3447 3.506 26.7787 1.922 24.6007 1.922C22.2787 1.922 20.7667 3.722 20.7667 5.612C20.7667 5.99 20.8027 6.332 20.8927 6.656H22.3327C22.2607 6.332 22.2247 6.008 22.2247 5.666C22.2247 5 22.4407 4.424 22.8727 3.938C23.3047 3.452 23.8807 3.218 24.6007 3.218C25.9867 3.218 26.8867 4.28 26.8867 5.594C26.8867 6.728 26.2387 7.628 24.7987 9.14L20.5687 13.64V14H28.8307V12.74H23.2327ZM38.7949 5.936C38.7949 3.65 36.9769 1.922 34.7629 1.922C32.5309 1.922 30.6949 3.65 30.6949 5.918C30.6949 8.096 32.4949 9.806 34.5649 9.806C34.9429 9.806 35.2849 9.752 35.5729 9.644L32.5489 14H34.2049L37.1569 9.716C37.6069 9.068 37.9129 8.6 38.0929 8.294C38.2909 7.988 38.4529 7.646 38.5789 7.25C38.7229 6.836 38.7949 6.404 38.7949 5.936ZM37.4089 5.9C37.4089 7.412 36.2749 8.618 34.7629 8.618C33.2509 8.618 32.0809 7.412 32.0809 5.9C32.0809 4.37 33.2509 3.2 34.7629 3.2C36.2749 3.2 37.4089 4.37 37.4089 5.9ZM40.1985 13.064C40.1985 13.712 40.7025 14.198 41.3325 14.198C41.9625 14.198 42.4665 13.712 42.4665 13.064C42.4665 12.416 41.9625 11.93 41.3325 11.93C40.7025 11.93 40.1985 12.416 40.1985 13.064ZM44.8696 7.952C44.8696 9.77 45.2296 11.282 45.9496 12.452C46.6876 13.622 47.7676 14.198 49.2256 14.198C50.6836 14.198 51.7636 13.622 52.4836 12.452C53.2036 11.282 53.5636 9.77 53.5636 7.952C53.5636 6.134 53.2036 4.676 52.4656 3.578C51.7456 2.48 50.6656 1.922 49.2256 1.922C47.7856 1.922 46.7056 2.48 45.9676 3.578C45.2296 4.676 44.8696 6.134 44.8696 7.952ZM52.1056 7.97C52.1056 10.994 51.2236 12.902 49.2256 12.902C47.2276 12.902 46.3276 10.994 46.3276 7.97C46.3276 5 47.2096 3.218 49.2256 3.218C51.2416 3.218 52.1056 5 52.1056 7.97ZM55.9439 7.952C55.9439 9.77 56.3039 11.282 57.0239 12.452C57.7619 13.622 58.8419 14.198 60.2999 14.198C61.7579 14.198 62.8379 13.622 63.5579 12.452C64.2779 11.282 64.6379 9.77 64.6379 7.952C64.6379 6.134 64.2779 4.676 63.5399 3.578C62.8199 2.48 61.7399 1.922 60.2999 1.922C58.8599 1.922 57.7799 2.48 57.0419 3.578C56.3039 4.676 55.9439 6.134 55.9439 7.952ZM63.1799 7.97C63.1799 10.994 62.2979 12.902 60.2999 12.902C58.3019 12.902 57.4019 10.994 57.4019 7.97C57.4019 5 58.2839 3.218 60.2999 3.218C62.3159 3.218 63.1799 5 63.1799 7.97Z" fill="#A5A5A5"/>
<line x1="1" y1="8.5" x2="66" y2="8.5" stroke="#CBCBCB"/>
</svg>
