<svg width="32" height="32" viewBox="0 0 32 32" fill="none" xmlns="http://www.w3.org/2000/svg">
<path fill-rule="evenodd" clip-rule="evenodd" d="M5 0H27C29.7614 0 32 2.23858 32 5V27C32 29.7614 29.7614 32 27 32H5C2.23858 32 0 29.7614 0 27V5C0 2.23858 2.23858 0 5 0ZM5 1C2.79086 1 1 2.79086 1 5V27C1 29.2091 2.79086 31 5 31H27C29.2091 31 31 29.2091 31 27V5C31 2.79086 29.2091 1 27 1H5Z" fill="#46A358" fill-opacity="0.2"/>
<path d="M11.3333 9.66667C11.3333 10.6 10.6 11.3333 9.66667 11.3333C8.73333 11.3333 8 10.6 8 9.66667C8 8.73333 8.73333 8 9.66667 8C10.6 8 11.3333 8.73333 11.3333 9.66667ZM11.3333 12.6667H8V23.3333H11.3333V12.6667ZM16.6667 12.6667H13.3333V23.3333H16.6667V17.7333C16.6667 14.6 20.6667 14.3333 20.6667 17.7333V23.3333H24V16.6C24 11.3333 18.0667 11.5333 16.6667 14.1333V12.6667Z" fill="black" fill-opacity="0.6"/>
</svg>
